<svg width="36" height="35" viewBox="0 0 36 35" xmlns="http://www.w3.org/2000/svg" xmlns:xlink="http://www.w3.org/1999/xlink">
    <g id="Group">
        <g id="g1">
            <path id="Path" fill="#68c60e" stroke="none" d="M 3.705002 7.587997 C 3.467999 7.934998 3.240002 8.289001 3.025002 8.658005 C 2.841 8.976997 2.672001 9.300003 2.509998 9.624001 C 2.672001 9.298996 2.844002 8.976997 3.028 8.660004 C 3.242001 8.291 3.469002 7.934998 3.705002 7.587997 Z"/>
            <path id="path1" fill="#68c60e" stroke="none" d="M 26.674999 2.360001 C 26.098999 2.026001 25.512001 1.733002 24.915001 1.472 C 25.511002 1.733002 26.098 2.028999 26.673 2.362999 C 28.617001 3.487999 30.255001 4.938995 31.568001 6.604004 C 31.832001 6.936996 32.084999 7.278 32.321999 7.625999 C 34.968002 11.544998 35.93 16.445 34.885002 21.118999 C 34.810997 21.445 34.727997 21.77 34.634003 22.094002 C 36.771004 14.647003 33.684998 6.421997 26.674999 2.360001 Z"/>
            <path id="path2" fill="#68c60e" stroke="none" d="M 34.280998 23.18 C 34.171997 23.486 34.053001 23.791 33.927002 24.092999 C 34.056 23.792 34.171997 23.486 34.280998 23.18 Z"/>
            <path id="path3" fill="#68c60e" stroke="none" d="M 34.603996 22.187 C 34.524002 22.465 34.435997 22.740002 34.339996 23.013 C 34.436996 22.738998 34.523003 22.464001 34.603996 22.187 Z"/>
            <path id="path4" fill="#68c60e" stroke="none" d="M 32.302002 27.068001 C 32.535004 26.723999 32.763 26.375 32.973999 26.009998 C 33.334999 25.387001 33.648003 24.75 33.921997 24.105 C 33.648003 24.75 33.331001 25.386002 32.971001 26.007999 C 32.759003 26.374001 32.535004 26.724998 32.302002 27.068001 Z"/>
            <path id="path5" fill="#68c60e" stroke="none" d="M 31.504002 28.143002 C 31.328999 28.362999 31.150002 28.577999 30.966 28.786999 C 31.150002 28.577999 31.328999 28.362999 31.504002 28.143002 Z"/>
            <path id="path6" fill="#68c60e" stroke="none" d="M 32.255997 27.134998 C 32.064003 27.417 31.861 27.688999 31.654999 27.955002 C 31.861 27.688999 32.063004 27.417 32.255997 27.134998 Z"/>
            <path id="path7" fill="#68c60e" stroke="none" d="M 24.681 33.284 C 20.306 35.111 15.231998 35.131001 10.700001 33.015999 C 10.273998 32.819 9.853001 32.603001 9.438999 32.367001 C 9.402 32.346001 9.362999 32.327 9.326 32.304001 C 9.132 32.192001 8.941002 32.075001 8.751999 31.956001 C 8.941002 32.075001 9.129002 32.195 9.323002 32.306999 C 16.530998 36.481998 25.493 34.872002 30.849998 28.915001 C 29.403 30.521 27.691002 31.811001 25.82 32.756001 C 25.445 32.945999 25.067001 33.123001 24.681 33.284 Z"/>
            <path id="path8" fill="#68c60e" stroke="none" d="M 1.700001 23.102001 C 0.658001 20.153 0.415001 16.934998 1.063 13.806999 C 1.138 13.447998 1.221001 13.089005 1.319 12.733002 C -0.239 18.363998 1.181 24.414001 5.009998 28.764 C 3.800999 27.388 2.832001 25.841999 2.122002 24.193001 C 1.966999 23.834 1.828999 23.470001 1.700001 23.102001 Z"/>
            <path id="path9" fill="#68c60e" stroke="none" d="M 7.473 31.064999 C 7.199001 30.856998 6.937 30.639 6.679001 30.416 C 6.937 30.639 7.199001 30.856998 7.473 31.064999 Z"/>
            <path id="path10" fill="#68c60e" stroke="none" d="M 6.536999 30.292 C 6.007999 29.825001 5.512001 29.330002 5.050999 28.808998 C 5.512001 29.328999 6.007 29.824001 6.536999 30.292 Z"/>
            <path id="path11" fill="#68c60e" stroke="none" d="M 1.676998 11.598999 C 1.783001 11.298996 1.895 11 2.018002 10.704002 C 1.895 11.000999 1.784 11.298996 1.676998 11.598999 Z"/>
            <path id="path12" fill="#68c60e" stroke="none" d="M 1.333 12.682999 C 1.412998 12.395004 1.504002 12.111 1.599998 11.826996 C 1.504002 12.111 1.415001 12.395996 1.333 12.682999 Z"/>
            <path id="path13" fill="#68c60e" stroke="none" d="M 7.867001 3.318001 C 8.417999 2.920998 8.990002 2.556999 9.577999 2.229996 C 8.988998 2.557999 8.417 2.919998 7.867001 3.318001 Z"/>
            <path id="path14" fill="#68c60e" stroke="none" d="M 18.615002 0.048996 C 17.929001 0.025002 17.243 0.044998 16.562 0.102997 C 17.041 0.061996 17.52 0.040001 18.002998 0.040001 C 18.207001 0.040001 18.41 0.042999 18.615002 0.048996 Z"/>
            <path id="path15" fill="#68c60e" stroke="none" d="M 5.390999 5.483002 C 5.679001 5.177002 5.976002 4.882004 6.283001 4.600998 C 5.977001 4.882004 5.679001 5.177002 5.390999 5.483002 Z"/>
            <path id="path16" fill="#68c60e" stroke="none" d="M 20.487 0.216003 C 20.652 0.239998 20.816002 0.267998 20.983002 0.295998 C 20.816002 0.267998 20.652 0.239998 20.487 0.216003 Z"/>
            <path id="path17" fill="#68c60e" stroke="none" d="M 19.388 0.089005 C 19.566002 0.102997 19.742001 0.126999 19.918999 0.145996 C 19.742001 0.125 19.564999 0.102997 19.388 0.089005 Z"/>
            <path id="path18" fill="#68c60e" stroke="none" d="M 16.522999 0.104996 C 14.134998 0.311996 11.810001 1.012001 9.702 2.162003 C 11.810001 1.014 14.137001 0.313004 16.522999 0.104996 Z"/>
            <path id="path19" fill="#68c60e" stroke="none" d="M 21.625 0.420998 C 21.764999 0.451004 21.903 0.479996 22.043999 0.513 C 21.903 0.479004 21.764999 0.451004 21.625 0.420998 Z"/>
            <path id="path20" fill="#68c60e" stroke="none" d="M 7.568001 3.540001 C 7.372002 3.686996 7.178001 3.837997 6.987999 3.995003 C 7.054001 3.940002 7.118999 3.886002 7.186001 3.831001 C 7.312 3.732002 7.439999 3.636002 7.568001 3.540001 Z"/>
            <path id="path21" fill="#68c60e" stroke="none" d="M 16.342999 3.931999 C 14.523998 6.470001 12.527 9.259003 9.429001 11.440002 C 9.695999 12.112999 9.985001 12.795998 10.292 13.487999 C 10.491001 13.936996 10.700001 14.387001 10.915001 14.839005 C 16.973999 10.473 24.34 6.93 31.567001 6.604004 C 30.254002 4.938004 28.617001 3.487999 26.672001 2.362999 C 26.097 2.029999 25.509998 1.733002 24.914001 1.472 C 24.910999 1.471001 24.908001 1.470001 24.903999 1.468002 C 24.611 1.341003 24.317001 1.222 24.021 1.112 C 24.011002 1.108002 24.000999 1.104004 23.991001 1.100998 C 23.695999 0.990997 23.396999 0.890999 23.098 0.798996 C 23.098 0.798996 23.097 0.798004 23.096001 0.798004 C 22.745998 0.690002 22.395 0.597 22.042 0.512001 C 21.901001 0.479004 21.763 0.449997 21.623001 0.419998 C 21.408001 0.375999 21.195 0.332001 20.980999 0.294998 C 20.813999 0.266998 20.650002 0.238998 20.485001 0.214996 C 20.296001 0.188004 20.105999 0.166 19.917 0.145004 C 19.740002 0.125999 19.563 0.101997 19.386002 0.087997 C 19.383999 0.087997 19.382999 0.086998 19.381001 0.086998 C 18.321999 1.175003 17.360001 2.513 16.342999 3.931999 Z"/>
            <path id="path22" fill="#68c60e" stroke="none" d="M 24.681 33.284 C 24.027 32.870998 23.386002 32.429001 22.762001 31.955002 C 18.875999 29.004002 15.536999 24.929001 12.882 20.632 C 10.178001 22.738998 9.597 25.903 9.895 29.009998 C 10.027 30.387001 10.330002 31.751999 10.700001 33.015999 C 15.231998 35.131001 20.306 35.111 24.681 33.284 Z"/>
            <path id="path23" fill="#68c60e" stroke="none" d="M 11.485001 15.718002 C 11.450001 15.740997 11.415001 15.768997 11.381001 15.792 C 11.941002 16.910004 12.550999 18.033001 13.206001 19.145 C 18.331001 16.145004 27.948002 19.015999 34.883003 21.120998 C 35.929001 16.446999 34.966003 11.546997 32.32 7.627998 C 25.085999 7.729996 17.610001 11.296997 11.485001 15.718002 Z"/>
            <path id="path24" fill="#68c60e" stroke="none" d="M 13.747002 20.042 C 16.342999 24.257 19.605 28.247002 23.395 31.124001 C 24.181 31.721001 24.991001 32.266998 25.82 32.757999 C 27.691002 31.813999 29.403 30.522999 30.849998 28.917 C 30.888 28.874001 30.926998 28.831001 30.965 28.786999 C 31.150002 28.577999 31.327999 28.362999 31.502998 28.143002 C 31.553001 28.080002 31.605 28.018002 31.653999 27.955002 C 31.860001 27.688 32.061996 27.416 32.254997 27.134998 C 32.272003 27.112999 32.286003 27.091 32.301003 27.068001 C 32.533997 26.724998 32.758003 26.373001 32.970001 26.007999 C 33.330002 25.386002 33.647003 24.749001 33.920998 24.105 C 33.924004 24.101002 33.924004 24.097 33.926003 24.092999 C 34.053001 23.791 34.170998 23.486 34.279999 23.18 C 34.301003 23.125999 34.319 23.067001 34.339996 23.013 C 34.435997 22.740002 34.524002 22.465 34.603996 22.187 C 34.611 22.168999 34.616997 22.151001 34.622002 22.132999 C 27.872002 20.083 18.486 17.270996 13.747002 20.042 Z"/>
            <path id="path25" fill="#68c60e" stroke="none" d="M 1.700001 23.102001 C 3.904999 20.609001 6.77 17.93 10.056 15.470001 C 9.806 14.949005 9.564999 14.43 9.335999 13.916 C 9.054001 13.281998 8.787998 12.653 8.540001 12.030998 C 5.311001 14.056999 2.901001 14.319 1.063999 13.806 C 0.415001 16.934998 0.658001 20.153 1.700001 23.102001 Z"/>
            <path id="path26" fill="#68c60e" stroke="none" d="M 8.152 11.037003 C 7.275002 8.704002 6.650002 6.505997 6.293999 4.589996 C 6.291 4.593002 6.286999 4.597 6.283001 4.600998 C 5.976002 4.882004 5.679001 5.178001 5.390999 5.483002 C 5.382999 5.490997 5.375 5.499001 5.368 5.507996 C 4.798 6.117004 4.268002 6.774002 3.780998 7.477997 C 3.755001 7.514999 3.730999 7.551003 3.705002 7.587997 C 3.469002 7.934998 3.242001 8.291 3.028 8.660004 C 2.844002 8.976997 2.672001 9.298996 2.509998 9.624001 C 2.495998 9.651001 2.484001 9.679001 2.470001 9.706001 C 2.323002 10.003998 2.186001 10.306 2.056999 10.609001 C 2.043999 10.640999 2.030998 10.671997 2.018002 10.704002 C 1.894001 11 1.783001 11.298996 1.676998 11.598999 C 1.651001 11.675003 1.625 11.750999 1.599998 11.826004 C 1.504002 12.111 1.412998 12.395004 1.333 12.681999 C 1.330002 12.695 1.324001 12.709 1.32 12.723 C 2.981998 13.190002 5.178001 12.942001 8.152 11.037003 Z"/>
            <path id="path27" fill="#68c60e" stroke="none" d="M 9.040001 10.432999 C 11.881001 8.370003 13.772999 5.729004 15.495998 3.321999 C 16.339001 2.147003 17.144001 1.027 18.002998 0.040001 C 17.521 0.041 17.041 0.063004 16.562 0.102997 C 16.548 0.104004 16.535999 0.104996 16.522999 0.104996 C 14.137001 0.313004 11.810001 1.014 9.702 2.162003 C 9.66 2.183998 9.618999 2.207001 9.577999 2.229996 C 8.988998 2.556999 8.417999 2.919998 7.867001 3.318001 C 7.765999 3.389999 7.667 3.464996 7.569 3.540001 C 7.441002 3.636002 7.313 3.732002 7.187 3.831001 C 7.5 5.722 8.127998 7.987999 9.040001 10.432999 Z"/>
            <path id="path28" fill="#68c60e" stroke="none" d="M 9.438999 32.367001 C 9.172001 31.319 8.958 30.220001 8.852001 29.110001 C 8.521 25.643002 9.198002 22.098 12.335999 19.73 C 11.688 18.632999 11.084 17.527 10.526001 16.423996 C 7.171001 18.952 4.278 21.692001 2.122002 24.193001 C 2.831001 25.841999 3.800999 27.388 5.009998 28.764 C 5.023998 28.778999 5.035999 28.793999 5.050999 28.807999 C 5.511002 29.328999 6.007999 29.824001 6.536999 30.291 C 6.584999 30.333 6.632 30.374001 6.68 30.416 C 6.938 30.639 7.200001 30.856998 7.473999 31.064999 C 7.514 31.096001 7.555 31.126999 7.597 31.159 C 7.75 31.273998 7.905998 31.387001 8.063 31.498001 C 8.115002 31.534 8.167 31.57 8.220001 31.605 C 8.380001 31.715 8.541 31.823002 8.705002 31.929001 C 8.721001 31.938 8.737 31.948002 8.751999 31.957001 C 8.939999 32.076 9.131001 32.193001 9.326 32.305 C 9.362999 32.327999 9.402 32.346001 9.438999 32.367001 Z"/>
        </g>
    </g>
</svg>
