<svg height='100px' width='100px'  fill="rgb(104, 198, 14)" xmlns="http://www.w3.org/2000/svg" xmlns:xlink="http://www.w3.org/1999/xlink" version="1.1" x="0px" y="0px" viewBox="0 0 100 100" enable-background="new 0 0 100 100" xml:space="preserve"><g><g><g><g><g><g><g><g><g><g><g><g><g><g><g><g><g><g><g><g><g><path fill="none" d="M44.612,12.766c0.004,0,0.008,0,0.014,0c0.004,0,0.008,0,0.012,0H44.612z"></path><path d="M57.321,6.63c-2.34-0.63-4.801-0.97-7.33-0.97c-2.221,0-4.381,0.26-6.461,0.76                       C31.01,9.35,21.62,20.63,21.62,34.029c0,6.891,3.3,15.341,6,20.44c3.72,6.819,15.65,27.94,19.18,34.22                       l3.211,5.65l3.09-5.58c0.131-0.141,14.539-25.84,19.35-34.21c2.871-5.03,5.93-13.92,5.93-20.521                       C78.38,20.939,69.411,9.87,57.321,6.63z M66.231,50.99c-0.83,1.47-1.951,3.439-3.23,5.7                       c-0.051,0.1-0.111,0.199-0.17,0.31c-3.961,7-9.391,16.629-12.84,22.82c-3.561-6.23-9.02-15.971-12.82-22.82                       c-0.061-0.1-0.119-0.2-0.17-0.3c-1.279-2.311-2.359-4.271-3.101-5.63c-2.561-4.73-5.19-11.86-5.19-17.041                       c0-9.25,6.012-17.17,14.311-20.069c2.189-0.771,4.541-1.19,6.98-1.19c2.66,0,5.25,0.5,7.67,1.451                       c2.699,1.049,5.189,2.67,7.311,4.789c3.988,4.061,6.209,9.301,6.209,15.02                       C71.19,39.15,68.571,46.85,66.231,50.99z"></path></g></g></g></g></g></g></g></g></g><path d="M37.171,57h-0.17v-0.3C37.052,56.8,37.11,56.9,37.171,57z"></path><path d="M63.001,56.69V57h-0.17C62.89,56.89,62.95,56.79,63.001,56.69z"></path></g></g></g></g></g></g></g></g></g></g></g><g><path d="M35.705,25.588c-0.237,0.347-0.465,0.701-0.68,1.07c-0.184,0.319-0.353,0.642-0.515,0.966    c0.162-0.325,0.334-0.647,0.518-0.964C35.242,26.291,35.469,25.935,35.705,25.588z"></path><path d="M58.675,20.36c-0.576-0.334-1.163-0.627-1.76-0.888c0.596,0.261,1.183,0.557,1.758,0.891    c1.944,1.125,3.582,2.576,4.895,4.241c0.264,0.333,0.517,0.674,0.754,1.022c2.646,3.919,3.608,8.819,2.563,13.493    c-0.074,0.326-0.157,0.651-0.251,0.975C68.771,32.647,65.685,24.422,58.675,20.36z"></path><path d="M66.281,41.18c-0.109,0.306-0.228,0.611-0.354,0.913C66.056,41.792,66.172,41.486,66.281,41.18z"></path><path d="M66.604,40.187c-0.08,0.278-0.168,0.553-0.264,0.826C66.437,40.739,66.523,40.464,66.604,40.187z"></path><path d="M64.302,45.068c0.233-0.344,0.461-0.693,0.672-1.058c0.361-0.623,0.674-1.26,0.948-1.905    c-0.274,0.645-0.591,1.281-0.951,1.903C64.759,44.374,64.535,44.725,64.302,45.068z"></path><path d="M63.504,46.143c-0.175,0.22-0.354,0.435-0.538,0.644C63.15,46.578,63.329,46.363,63.504,46.143z"></path><path d="M64.256,45.135c-0.192,0.282-0.395,0.554-0.601,0.82C63.861,45.689,64.063,45.417,64.256,45.135z"></path><path d="M56.681,51.284c-4.375,1.827-9.449,1.847-13.981-0.268c-0.426-0.197-0.847-0.413-1.261-0.649    c-0.037-0.021-0.076-0.04-0.113-0.063c-0.194-0.112-0.385-0.229-0.574-0.348c0.189,0.119,0.377,0.239,0.571,0.351    c7.208,4.175,16.17,2.565,21.527-3.392c-1.447,1.606-3.159,2.896-5.03,3.841C57.445,50.946,57.067,51.123,56.681,51.284z"></path><path d="M33.7,41.102c-1.042-2.949-1.285-6.167-0.637-9.295c0.075-0.359,0.158-0.718,0.256-1.074    c-1.558,5.631-0.138,11.681,3.691,16.031c-1.209-1.376-2.178-2.922-2.888-4.571C33.967,41.834,33.829,41.47,33.7,41.102z"></path><path d="M39.473,49.065c-0.274-0.208-0.536-0.426-0.794-0.649C38.937,48.639,39.199,48.857,39.473,49.065z"></path><path d="M38.537,48.292c-0.529-0.467-1.025-0.962-1.486-1.483C37.512,47.329,38.007,47.824,38.537,48.292z"></path><path d="M33.677,29.599c0.106-0.3,0.218-0.599,0.341-0.895C33.895,29.001,33.784,29.299,33.677,29.599z"></path><path d="M33.333,30.683c0.08-0.288,0.171-0.572,0.267-0.856C33.504,30.111,33.415,30.396,33.333,30.683z"></path><path d="M39.867,21.318c0.551-0.397,1.123-0.761,1.711-1.088C40.989,20.558,40.417,20.92,39.867,21.318z"></path><path d="M50.615,18.049c-0.686-0.024-1.372-0.004-2.053,0.054c0.479-0.041,0.958-0.063,1.441-0.063    C50.207,18.04,50.41,18.043,50.615,18.049z"></path><path d="M37.391,23.483c0.288-0.306,0.585-0.601,0.892-0.882C37.977,22.882,37.679,23.177,37.391,23.483z"></path><path d="M52.487,18.216c0.165,0.024,0.329,0.052,0.496,0.08C52.816,18.268,52.652,18.24,52.487,18.216z"></path><path d="M51.388,18.089c0.178,0.014,0.354,0.038,0.531,0.057C51.742,18.125,51.565,18.103,51.388,18.089z"></path><path d="M48.523,18.105c-2.388,0.207-4.713,0.907-6.821,2.057C43.81,19.014,46.137,18.313,48.523,18.105z"></path><path d="M53.625,18.421c0.14,0.03,0.278,0.059,0.419,0.092C53.903,18.479,53.765,18.451,53.625,18.421z"></path><path d="M39.568,21.54c-0.196,0.147-0.39,0.298-0.58,0.455c0.066-0.055,0.131-0.109,0.198-0.164    C39.312,21.732,39.44,21.636,39.568,21.54z"></path><path d="M48.343,21.932c-1.819,2.538-3.816,5.327-6.914,7.508c0.267,0.673,0.556,1.356,0.863,2.048    c0.199,0.449,0.408,0.899,0.623,1.351c6.059-4.366,13.425-7.909,20.652-8.235c-1.313-1.666-2.95-3.116-4.895-4.241    c-0.575-0.333-1.162-0.63-1.758-0.891c-0.003-0.001-0.006-0.002-0.01-0.004c-0.293-0.127-0.587-0.246-0.883-0.356    c-0.01-0.004-0.02-0.008-0.03-0.011c-0.295-0.11-0.594-0.21-0.893-0.302c0,0-0.001-0.001-0.002-0.001    c-0.35-0.108-0.701-0.201-1.054-0.286c-0.141-0.033-0.279-0.062-0.419-0.092c-0.215-0.044-0.428-0.088-0.642-0.125    c-0.167-0.028-0.331-0.056-0.496-0.08c-0.189-0.027-0.379-0.049-0.568-0.07c-0.177-0.019-0.354-0.043-0.531-0.057    c-0.002,0-0.003-0.001-0.005-0.001C50.322,19.175,49.36,20.513,48.343,21.932z"></path><path d="M56.681,51.284c-0.654-0.413-1.295-0.855-1.919-1.329c-3.886-2.951-7.225-7.026-9.88-11.323    c-2.704,2.107-3.285,5.271-2.987,8.378c0.132,1.377,0.435,2.742,0.805,4.006C47.232,53.131,52.306,53.111,56.681,51.284z"></path><path d="M43.485,33.718c-0.035,0.023-0.07,0.051-0.104,0.074c0.56,1.118,1.17,2.241,1.825,3.353    c5.125-3,14.742-0.129,21.677,1.976c1.046-4.674,0.083-9.574-2.563-13.493C57.086,25.73,49.61,29.297,43.485,33.718z"></path><path d="M45.747,38.042c2.596,4.215,5.858,8.205,9.648,11.082c0.786,0.597,1.596,1.143,2.425,1.634    c1.871-0.944,3.583-2.235,5.03-3.841c0.038-0.043,0.077-0.086,0.115-0.13c0.185-0.209,0.363-0.424,0.538-0.644    c0.05-0.063,0.102-0.125,0.151-0.188c0.206-0.267,0.408-0.539,0.601-0.82c0.017-0.022,0.031-0.044,0.046-0.067    c0.233-0.343,0.457-0.695,0.669-1.06c0.36-0.622,0.677-1.259,0.951-1.903c0.003-0.004,0.003-0.008,0.005-0.012    c0.127-0.302,0.245-0.607,0.354-0.913c0.021-0.054,0.039-0.113,0.06-0.167c0.096-0.273,0.184-0.548,0.264-0.826    c0.007-0.018,0.013-0.036,0.018-0.054C59.872,38.083,50.486,35.271,45.747,38.042z"></path><path d="M33.7,41.102c2.205-2.493,5.07-5.172,8.356-7.632c-0.25-0.521-0.491-1.04-0.72-1.554    c-0.282-0.634-0.548-1.263-0.796-1.885c-3.229,2.026-5.639,2.288-7.476,1.775C32.415,34.935,32.658,38.153,33.7,41.102z"></path><path d="M40.152,29.037c-0.877-2.333-1.502-4.531-1.858-6.447c-0.003,0.003-0.007,0.007-0.011,0.011    c-0.307,0.281-0.604,0.577-0.892,0.882c-0.008,0.008-0.016,0.016-0.023,0.025c-0.57,0.609-1.1,1.266-1.587,1.97    c-0.026,0.037-0.05,0.073-0.076,0.11c-0.236,0.347-0.463,0.703-0.677,1.072c-0.184,0.317-0.356,0.639-0.518,0.964    c-0.014,0.027-0.026,0.055-0.04,0.082c-0.147,0.298-0.284,0.6-0.413,0.903c-0.013,0.032-0.026,0.063-0.039,0.095    c-0.124,0.296-0.235,0.595-0.341,0.895c-0.026,0.076-0.052,0.152-0.077,0.227c-0.096,0.285-0.187,0.569-0.267,0.856    c-0.003,0.013-0.009,0.027-0.013,0.041C34.982,31.19,37.178,30.942,40.152,29.037z"></path><path d="M41.04,28.433c2.841-2.063,4.733-4.704,6.456-7.111c0.843-1.175,1.648-2.295,2.507-3.282    c-0.482,0.001-0.962,0.023-1.441,0.063c-0.014,0.001-0.026,0.002-0.039,0.002c-2.386,0.208-4.713,0.909-6.821,2.057    c-0.042,0.022-0.083,0.045-0.124,0.068c-0.589,0.327-1.16,0.69-1.711,1.088c-0.101,0.072-0.2,0.147-0.298,0.222    c-0.128,0.096-0.256,0.192-0.382,0.291C39.5,23.722,40.128,25.988,41.04,28.433z"></path><path d="M41.439,50.367c-0.267-1.048-0.481-2.147-0.587-3.257c-0.331-3.467,0.346-7.012,3.484-9.38    c-0.648-1.097-1.252-2.203-1.81-3.306c-3.355,2.528-6.248,5.268-8.404,7.769c0.709,1.649,1.679,3.195,2.888,4.571    c0.014,0.015,0.026,0.03,0.041,0.044c0.46,0.521,0.957,1.016,1.486,1.483c0.048,0.042,0.095,0.083,0.143,0.125    c0.258,0.223,0.52,0.441,0.794,0.649c0.04,0.031,0.081,0.062,0.123,0.094c0.153,0.115,0.309,0.228,0.466,0.339    c0.052,0.036,0.104,0.072,0.157,0.107c0.16,0.11,0.321,0.218,0.485,0.324c0.016,0.009,0.032,0.019,0.047,0.028    c0.188,0.119,0.379,0.236,0.574,0.348C41.363,50.328,41.402,50.346,41.439,50.367z"></path></g></g></svg>
